<mxfile host="www.draw.io" modified="2019-11-26T07:01:38.768Z" agent="Mozilla/5.0 (Windows NT 10.0; Win64; x64) AppleWebKit/537.36 (KHTML, like Gecko) Chrome/75.0.3770.142 Safari/537.36" etag="d7IUoT2WUhnvsoAHyAvC" version="12.3.0" type="github" pages="1">
  <diagram name="Page-1" id="74e2e168-ea6b-b213-b513-2b3c1d86103e">
    <mxGraphModel dx="1182" dy="683" grid="1" gridSize="10" guides="1" tooltips="1" connect="1" arrows="1" fold="1" page="1" pageScale="1" pageWidth="1100" pageHeight="850" background="#ffffff" math="0" shadow="0">
      <root>
        <mxCell id="0"/>
        <mxCell id="1" parent="0"/>
        <mxCell id="77e6c97f196da883-1" value="云资料库关于上传的基本流程" style="swimlane;html=1;childLayout=stackLayout;startSize=56;rounded=0;shadow=0;labelBackgroundColor=none;strokeWidth=1;fontFamily=Verdana;fontSize=8;align=center;" parent="1" vertex="1">
          <mxGeometry x="70" y="30" width="1390" height="760" as="geometry"/>
        </mxCell>
        <mxCell id="77e6c97f196da883-2" value="&lt;p class=&quot;MsoNormal&quot;&gt;&lt;span style=&quot;font-size: 10.5000pt&quot;&gt;&lt;font face=&quot;宋体&quot;&gt;安装&lt;/font&gt;cos-js-sdk-v5&lt;font face=&quot;宋体&quot;&gt;依赖&lt;/font&gt;&lt;/span&gt;&lt;/p&gt;" style="swimlane;html=1;startSize=52;" parent="77e6c97f196da883-1" vertex="1">
          <mxGeometry y="56" width="280" height="704" as="geometry"/>
        </mxCell>
        <mxCell id="kwMjrkI9CtvLFC3NS55a-6" value="&lt;p class=&quot;MsoNormal&quot;&gt;&lt;font style=&quot;font-size: 12px&quot;&gt;&lt;font face=&quot;宋体&quot;&gt;安装&lt;/font&gt;cos-js-sdk-v5&lt;font face=&quot;宋体&quot;&gt;依赖&lt;/font&gt;&lt;/font&gt;&lt;/p&gt;" style="rounded=1;whiteSpace=wrap;html=1;" parent="77e6c97f196da883-2" vertex="1">
          <mxGeometry x="80" y="84" width="120" height="60" as="geometry"/>
        </mxCell>
        <mxCell id="77e6c97f196da883-3" value="&lt;p class=&quot;MsoNormal&quot;&gt;&lt;span style=&quot;font-size: 10.5000pt&quot;&gt;&lt;font face=&quot;宋体&quot;&gt;封装根据密钥创建一个&lt;/font&gt; COS SDK &lt;font face=&quot;宋体&quot;&gt;实例的方法&lt;/font&gt;&lt;/span&gt;&lt;/p&gt;" style="swimlane;html=1;startSize=52;" parent="77e6c97f196da883-1" vertex="1">
          <mxGeometry x="280" y="56" width="400" height="704" as="geometry"/>
        </mxCell>
        <mxCell id="kwMjrkI9CtvLFC3NS55a-7" value="&lt;p class=&quot;MsoNormal&quot;&gt;&lt;font style=&quot;font-size: 12px&quot;&gt;&lt;font face=&quot;宋体&quot;&gt;封装方法&lt;/font&gt;getCos，&lt;font face=&quot;宋体&quot;&gt;异步请求&lt;/font&gt;&lt;span style=&quot;color: rgb(41 , 161 , 152) ; background: rgb(255 , 255 , 255)&quot;&gt;/Yun/getTempKey&lt;/span&gt;&lt;font face=&quot;宋体&quot;&gt;获取签名&lt;/font&gt;&lt;/font&gt;&lt;/p&gt;" style="rounded=1;whiteSpace=wrap;html=1;align=left;" parent="77e6c97f196da883-3" vertex="1">
          <mxGeometry x="100" y="84" width="160" height="60" as="geometry"/>
        </mxCell>
        <mxCell id="kwMjrkI9CtvLFC3NS55a-9" value="&lt;font style=&quot;font-size: 12px&quot;&gt;请求获取签名成功？&lt;/font&gt;" style="rhombus;whiteSpace=wrap;html=1;" parent="77e6c97f196da883-3" vertex="1">
          <mxGeometry x="105" y="240" width="150" height="80" as="geometry"/>
        </mxCell>
        <mxCell id="kwMjrkI9CtvLFC3NS55a-10" value="" style="endArrow=classic;html=1;entryX=0.5;entryY=0;entryDx=0;entryDy=0;exitX=0.5;exitY=1;exitDx=0;exitDy=0;" parent="77e6c97f196da883-3" source="kwMjrkI9CtvLFC3NS55a-7" target="kwMjrkI9CtvLFC3NS55a-9" edge="1">
          <mxGeometry width="50" height="50" relative="1" as="geometry">
            <mxPoint x="-280" y="800" as="sourcePoint"/>
            <mxPoint x="-230" y="750" as="targetPoint"/>
          </mxGeometry>
        </mxCell>
        <mxCell id="kwMjrkI9CtvLFC3NS55a-11" value="" style="endArrow=classic;html=1;exitX=0;exitY=0.5;exitDx=0;exitDy=0;entryX=0;entryY=0.5;entryDx=0;entryDy=0;" parent="77e6c97f196da883-3" source="kwMjrkI9CtvLFC3NS55a-9" target="kwMjrkI9CtvLFC3NS55a-7" edge="1">
          <mxGeometry width="50" height="50" relative="1" as="geometry">
            <mxPoint x="-280" y="800" as="sourcePoint"/>
            <mxPoint x="-230" y="750" as="targetPoint"/>
            <Array as="points">
              <mxPoint x="30" y="280"/>
              <mxPoint x="30" y="114"/>
            </Array>
          </mxGeometry>
        </mxCell>
        <mxCell id="kwMjrkI9CtvLFC3NS55a-12" value="否，隔3s重新请求" style="text;html=1;strokeColor=none;fillColor=none;align=center;verticalAlign=middle;whiteSpace=wrap;rounded=0;" parent="77e6c97f196da883-3" vertex="1">
          <mxGeometry x="40" y="190" width="60" height="20" as="geometry"/>
        </mxCell>
        <mxCell id="kwMjrkI9CtvLFC3NS55a-13" value="&lt;font style=&quot;font-size: 12px&quot;&gt;callback回传临时密钥参数&lt;/font&gt;" style="rounded=1;whiteSpace=wrap;html=1;" parent="77e6c97f196da883-3" vertex="1">
          <mxGeometry x="120" y="390" width="120" height="60" as="geometry"/>
        </mxCell>
        <mxCell id="kwMjrkI9CtvLFC3NS55a-14" value="" style="endArrow=classic;html=1;entryX=0.5;entryY=0;entryDx=0;entryDy=0;exitX=0.5;exitY=1;exitDx=0;exitDy=0;" parent="77e6c97f196da883-3" source="kwMjrkI9CtvLFC3NS55a-9" target="kwMjrkI9CtvLFC3NS55a-13" edge="1">
          <mxGeometry width="50" height="50" relative="1" as="geometry">
            <mxPoint x="-280" y="800" as="sourcePoint"/>
            <mxPoint x="-230" y="750" as="targetPoint"/>
          </mxGeometry>
        </mxCell>
        <mxCell id="kwMjrkI9CtvLFC3NS55a-20" value="是" style="text;html=1;strokeColor=none;fillColor=none;align=center;verticalAlign=middle;whiteSpace=wrap;rounded=0;" parent="77e6c97f196da883-3" vertex="1">
          <mxGeometry x="180" y="340" width="40" height="20" as="geometry"/>
        </mxCell>
        <mxCell id="kwMjrkI9CtvLFC3NS55a-2" value="&lt;p class=&quot;MsoNormal&quot; style=&quot;margin-left: 0.0000pt ; text-indent: 21.0000pt ; text-align: left&quot;&gt;&lt;span style=&quot;font-size: 10.5000pt&quot;&gt;&lt;font face=&quot;宋体&quot;&gt;上传文件&lt;/font&gt;&lt;/span&gt;&lt;span style=&quot;font-size: 10.5000pt&quot;&gt;&lt;/span&gt;&lt;/p&gt;" style="swimlane;html=1;startSize=52;" parent="77e6c97f196da883-1" vertex="1">
          <mxGeometry x="680" y="56" width="710" height="704" as="geometry"/>
        </mxCell>
        <mxCell id="kwMjrkI9CtvLFC3NS55a-15" value="&lt;font style=&quot;font-size: 12px&quot;&gt;设置input[file]的&lt;span style=&quot;color: rgb(203 , 75 , 21) ; background: rgb(255 , 255 , 255)&quot;&gt;accept&lt;/span&gt;&lt;font face=&quot;宋体&quot;&gt;属性限制上传文件的类型限制&lt;/font&gt;&lt;/font&gt;" style="rounded=1;whiteSpace=wrap;html=1;" parent="kwMjrkI9CtvLFC3NS55a-2" vertex="1">
          <mxGeometry x="490" y="80" width="180" height="60" as="geometry"/>
        </mxCell>
        <mxCell id="kwMjrkI9CtvLFC3NS55a-17" value="&lt;p class=&quot;MsoNormal&quot;&gt;&lt;font style=&quot;font-size: 12px&quot;&gt;&lt;font face=&quot;宋体&quot;&gt;计算上传文件总大小，&lt;/font&gt;&lt;font face=&quot;宋体&quot;&gt;请求&lt;/font&gt;&lt;span style=&quot;color: rgb(41 , 161 , 152) ; background: rgb(255 , 255 , 255)&quot;&gt;/Yun/getYunInfo&lt;/span&gt;&lt;font face=&quot;宋体&quot;&gt;获取云资料盘的容量信息&lt;/font&gt;&lt;/font&gt;&lt;/p&gt;" style="rounded=1;whiteSpace=wrap;html=1;" parent="kwMjrkI9CtvLFC3NS55a-2" vertex="1">
          <mxGeometry x="470" y="230" width="220" height="60" as="geometry"/>
        </mxCell>
        <mxCell id="kwMjrkI9CtvLFC3NS55a-16" value="" style="endArrow=classic;html=1;exitX=0.5;exitY=1;exitDx=0;exitDy=0;" parent="kwMjrkI9CtvLFC3NS55a-2" source="kwMjrkI9CtvLFC3NS55a-15" target="kwMjrkI9CtvLFC3NS55a-17" edge="1">
          <mxGeometry width="50" height="50" relative="1" as="geometry">
            <mxPoint x="-90" y="790" as="sourcePoint"/>
            <mxPoint x="-40" y="740" as="targetPoint"/>
          </mxGeometry>
        </mxCell>
        <mxCell id="kwMjrkI9CtvLFC3NS55a-18" value="change监听" style="text;html=1;strokeColor=none;fillColor=none;align=center;verticalAlign=middle;whiteSpace=wrap;rounded=0;" parent="kwMjrkI9CtvLFC3NS55a-2" vertex="1">
          <mxGeometry x="590" y="170" width="70" height="20" as="geometry"/>
        </mxCell>
        <mxCell id="kwMjrkI9CtvLFC3NS55a-19" value="剩余容量是否足够？" style="rhombus;whiteSpace=wrap;html=1;" parent="kwMjrkI9CtvLFC3NS55a-2" vertex="1">
          <mxGeometry x="502.5" y="340" width="155" height="80" as="geometry"/>
        </mxCell>
        <mxCell id="kwMjrkI9CtvLFC3NS55a-23" value="" style="endArrow=classic;html=1;entryX=0.5;entryY=0;entryDx=0;entryDy=0;exitX=0.5;exitY=1;exitDx=0;exitDy=0;" parent="kwMjrkI9CtvLFC3NS55a-2" source="kwMjrkI9CtvLFC3NS55a-17" target="kwMjrkI9CtvLFC3NS55a-19" edge="1">
          <mxGeometry width="50" height="50" relative="1" as="geometry">
            <mxPoint x="-250" y="790" as="sourcePoint"/>
            <mxPoint x="-200" y="740" as="targetPoint"/>
          </mxGeometry>
        </mxCell>
        <mxCell id="kwMjrkI9CtvLFC3NS55a-25" value="提示“”容量不足“”" style="rounded=1;whiteSpace=wrap;html=1;" parent="kwMjrkI9CtvLFC3NS55a-2" vertex="1">
          <mxGeometry x="520" y="480" width="120" height="60" as="geometry"/>
        </mxCell>
        <mxCell id="kwMjrkI9CtvLFC3NS55a-26" value="" style="endArrow=classic;html=1;entryX=0.5;entryY=0;entryDx=0;entryDy=0;exitX=0.5;exitY=1;exitDx=0;exitDy=0;" parent="kwMjrkI9CtvLFC3NS55a-2" source="kwMjrkI9CtvLFC3NS55a-19" target="kwMjrkI9CtvLFC3NS55a-25" edge="1">
          <mxGeometry width="50" height="50" relative="1" as="geometry">
            <mxPoint x="-40" y="790" as="sourcePoint"/>
            <mxPoint x="10" y="740" as="targetPoint"/>
          </mxGeometry>
        </mxCell>
        <mxCell id="kwMjrkI9CtvLFC3NS55a-27" value="否" style="text;html=1;strokeColor=none;fillColor=none;align=center;verticalAlign=middle;whiteSpace=wrap;rounded=0;" parent="kwMjrkI9CtvLFC3NS55a-2" vertex="1">
          <mxGeometry x="585" y="430" width="40" height="20" as="geometry"/>
        </mxCell>
        <mxCell id="kwMjrkI9CtvLFC3NS55a-28" value="&lt;p class=&quot;MsoNormal&quot;&gt;&lt;font style=&quot;font-size: 12px&quot;&gt;&lt;font face=&quot;宋体&quot;&gt;请求&lt;/font&gt;&lt;span style=&quot;color: rgb(41 , 161 , 152) ; background: rgb(255 , 255 , 255)&quot;&gt;/Yun/getYunSettings&lt;/span&gt;&lt;font face=&quot;宋体&quot;&gt;获取水印设置信息&lt;/font&gt;&lt;/font&gt;&lt;/p&gt;" style="rounded=1;whiteSpace=wrap;html=1;" parent="kwMjrkI9CtvLFC3NS55a-2" vertex="1">
          <mxGeometry x="120" y="80" width="170" height="60" as="geometry"/>
        </mxCell>
        <mxCell id="kwMjrkI9CtvLFC3NS55a-29" value="" style="endArrow=classic;html=1;entryX=1;entryY=0.5;entryDx=0;entryDy=0;exitX=0;exitY=0.5;exitDx=0;exitDy=0;" parent="kwMjrkI9CtvLFC3NS55a-2" source="kwMjrkI9CtvLFC3NS55a-19" target="kwMjrkI9CtvLFC3NS55a-28" edge="1">
          <mxGeometry width="50" height="50" relative="1" as="geometry">
            <mxPoint x="200" y="180" as="sourcePoint"/>
            <mxPoint x="250" y="130" as="targetPoint"/>
            <Array as="points">
              <mxPoint x="410" y="380"/>
              <mxPoint x="410" y="110"/>
            </Array>
          </mxGeometry>
        </mxCell>
        <mxCell id="kwMjrkI9CtvLFC3NS55a-30" value="&lt;p class=&quot;MsoNormal&quot;&gt;&lt;font face=&quot;宋体&quot; style=&quot;font-size: 12px&quot;&gt;对上传文件逐个进行加工处理&lt;/font&gt;&lt;/p&gt;" style="rounded=1;whiteSpace=wrap;html=1;" parent="kwMjrkI9CtvLFC3NS55a-2" vertex="1">
          <mxGeometry x="145" y="190" width="120" height="60" as="geometry"/>
        </mxCell>
        <mxCell id="kwMjrkI9CtvLFC3NS55a-31" value="" style="endArrow=classic;html=1;entryX=0.5;entryY=0;entryDx=0;entryDy=0;exitX=0.5;exitY=1;exitDx=0;exitDy=0;" parent="kwMjrkI9CtvLFC3NS55a-2" source="kwMjrkI9CtvLFC3NS55a-28" target="kwMjrkI9CtvLFC3NS55a-30" edge="1">
          <mxGeometry width="50" height="50" relative="1" as="geometry">
            <mxPoint x="210" y="190" as="sourcePoint"/>
            <mxPoint x="260" y="140" as="targetPoint"/>
          </mxGeometry>
        </mxCell>
        <mxCell id="kwMjrkI9CtvLFC3NS55a-32" value="通过getCos，&lt;br&gt;创建cos对象&lt;span&gt;&lt;font style=&quot;font-size: 12px&quot;&gt;_selfCos&lt;/font&gt;&lt;/span&gt;" style="rounded=1;whiteSpace=wrap;html=1;" parent="kwMjrkI9CtvLFC3NS55a-2" vertex="1">
          <mxGeometry x="145" y="300" width="120" height="60" as="geometry"/>
        </mxCell>
        <mxCell id="kwMjrkI9CtvLFC3NS55a-34" value="" style="endArrow=classic;html=1;exitX=0.5;exitY=1;exitDx=0;exitDy=0;entryX=0.5;entryY=0;entryDx=0;entryDy=0;" parent="kwMjrkI9CtvLFC3NS55a-2" source="kwMjrkI9CtvLFC3NS55a-30" target="kwMjrkI9CtvLFC3NS55a-32" edge="1">
          <mxGeometry width="50" height="50" relative="1" as="geometry">
            <mxPoint x="180" y="300" as="sourcePoint"/>
            <mxPoint x="230" y="250" as="targetPoint"/>
          </mxGeometry>
        </mxCell>
        <mxCell id="kwMjrkI9CtvLFC3NS55a-35" value="&lt;p class=&quot;MsoNormal&quot;&gt;&lt;font style=&quot;font-size: 12px&quot;&gt;&lt;font face=&quot;宋体&quot;&gt;上传文件逐个执行&lt;/font&gt;_selfCos.sliceUploadFile&lt;font face=&quot;宋体&quot;&gt;进行腾讯云的分块上传&lt;/font&gt;&lt;/font&gt;&lt;/p&gt;" style="rounded=1;whiteSpace=wrap;html=1;" parent="kwMjrkI9CtvLFC3NS55a-2" vertex="1">
          <mxGeometry x="117.5" y="410" width="175" height="60" as="geometry"/>
        </mxCell>
        <mxCell id="kwMjrkI9CtvLFC3NS55a-36" value="" style="endArrow=classic;html=1;exitX=0.5;exitY=1;exitDx=0;exitDy=0;entryX=0.5;entryY=0;entryDx=0;entryDy=0;" parent="kwMjrkI9CtvLFC3NS55a-2" source="kwMjrkI9CtvLFC3NS55a-32" target="kwMjrkI9CtvLFC3NS55a-35" edge="1">
          <mxGeometry width="50" height="50" relative="1" as="geometry">
            <mxPoint x="140" y="600" as="sourcePoint"/>
            <mxPoint x="190" y="550" as="targetPoint"/>
          </mxGeometry>
        </mxCell>
        <mxCell id="kwMjrkI9CtvLFC3NS55a-37" value="&lt;p class=&quot;MsoNormal&quot;&gt;&lt;font style=&quot;font-size: 12px&quot;&gt;&lt;span&gt;&lt;font face=&quot;宋体&quot;&gt;请求&lt;/font&gt;&lt;/span&gt;&lt;span style=&quot;color: rgb(41 , 161 , 152) ; background: rgb(255 , 255 , 255)&quot;&gt;/Yun/addFile&lt;/span&gt;&lt;span&gt;&lt;font face=&quot;宋体&quot;&gt;，添加文件的数据记录至数据库&lt;/font&gt;&lt;/span&gt;&lt;/font&gt;&lt;/p&gt;" style="rounded=1;whiteSpace=wrap;html=1;" parent="kwMjrkI9CtvLFC3NS55a-2" vertex="1">
          <mxGeometry x="145" y="620" width="120" height="60" as="geometry"/>
        </mxCell>
        <mxCell id="kwMjrkI9CtvLFC3NS55a-38" value="&lt;p class=&quot;MsoNormal&quot;&gt;&lt;span&gt;&lt;font face=&quot;宋体&quot; style=&quot;font-size: 12px&quot;&gt;腾讯云返回&lt;/font&gt;&lt;/span&gt;&lt;span&gt;结果&lt;/span&gt;&lt;/p&gt;" style="rhombus;whiteSpace=wrap;html=1;" parent="kwMjrkI9CtvLFC3NS55a-2" vertex="1">
          <mxGeometry x="126" y="510" width="158" height="60" as="geometry"/>
        </mxCell>
        <mxCell id="kwMjrkI9CtvLFC3NS55a-39" value="" style="endArrow=classic;html=1;exitX=0.5;exitY=1;exitDx=0;exitDy=0;" parent="kwMjrkI9CtvLFC3NS55a-2" source="kwMjrkI9CtvLFC3NS55a-38" edge="1">
          <mxGeometry width="50" height="50" relative="1" as="geometry">
            <mxPoint x="190" y="600" as="sourcePoint"/>
            <mxPoint x="205" y="619" as="targetPoint"/>
          </mxGeometry>
        </mxCell>
        <mxCell id="kwMjrkI9CtvLFC3NS55a-40" value="" style="endArrow=classic;html=1;exitX=0.5;exitY=1;exitDx=0;exitDy=0;" parent="kwMjrkI9CtvLFC3NS55a-2" source="kwMjrkI9CtvLFC3NS55a-35" target="kwMjrkI9CtvLFC3NS55a-38" edge="1">
          <mxGeometry width="50" height="50" relative="1" as="geometry">
            <mxPoint x="30" y="520" as="sourcePoint"/>
            <mxPoint x="80" y="470" as="targetPoint"/>
          </mxGeometry>
        </mxCell>
        <mxCell id="kwMjrkI9CtvLFC3NS55a-41" value="返回data" style="text;html=1;strokeColor=none;fillColor=none;align=center;verticalAlign=middle;whiteSpace=wrap;rounded=0;" parent="kwMjrkI9CtvLFC3NS55a-2" vertex="1">
          <mxGeometry x="205" y="580" width="40" height="20" as="geometry"/>
        </mxCell>
        <mxCell id="kwMjrkI9CtvLFC3NS55a-42" value="文件提示“上传失败”提示" style="rounded=1;whiteSpace=wrap;html=1;" parent="kwMjrkI9CtvLFC3NS55a-2" vertex="1">
          <mxGeometry x="340" y="620" width="140" height="60" as="geometry"/>
        </mxCell>
        <mxCell id="kwMjrkI9CtvLFC3NS55a-43" value="" style="edgeStyle=elbowEdgeStyle;elbow=horizontal;endArrow=classic;html=1;entryX=0;entryY=0.5;entryDx=0;entryDy=0;" parent="kwMjrkI9CtvLFC3NS55a-2" target="kwMjrkI9CtvLFC3NS55a-42" edge="1">
          <mxGeometry width="50" height="50" relative="1" as="geometry">
            <mxPoint x="280" y="540" as="sourcePoint"/>
            <mxPoint x="330" y="490" as="targetPoint"/>
          </mxGeometry>
        </mxCell>
        <mxCell id="kwMjrkI9CtvLFC3NS55a-44" value="返回err" style="text;html=1;strokeColor=none;fillColor=none;align=center;verticalAlign=middle;whiteSpace=wrap;rounded=0;" parent="kwMjrkI9CtvLFC3NS55a-2" vertex="1">
          <mxGeometry x="310" y="580" width="40" height="20" as="geometry"/>
        </mxCell>
        <mxCell id="kwMjrkI9CtvLFC3NS55a-45" value="" style="edgeStyle=elbowEdgeStyle;elbow=vertical;endArrow=classic;html=1;exitX=0.5;exitY=0;exitDx=0;exitDy=0;entryX=1;entryY=0.5;entryDx=0;entryDy=0;" parent="kwMjrkI9CtvLFC3NS55a-2" source="kwMjrkI9CtvLFC3NS55a-42" target="kwMjrkI9CtvLFC3NS55a-35" edge="1">
          <mxGeometry width="50" height="50" relative="1" as="geometry">
            <mxPoint x="400" y="610" as="sourcePoint"/>
            <mxPoint x="450" y="560" as="targetPoint"/>
            <Array as="points">
              <mxPoint x="350" y="440"/>
            </Array>
          </mxGeometry>
        </mxCell>
        <mxCell id="kwMjrkI9CtvLFC3NS55a-46" value="点击“重新上传”" style="text;html=1;strokeColor=none;fillColor=none;align=center;verticalAlign=middle;whiteSpace=wrap;rounded=0;" parent="kwMjrkI9CtvLFC3NS55a-2" vertex="1">
          <mxGeometry x="410" y="500" width="90" height="20" as="geometry"/>
        </mxCell>
        <mxCell id="kwMjrkI9CtvLFC3NS55a-8" value="" style="endArrow=classic;html=1;entryX=0;entryY=0.5;entryDx=0;entryDy=0;exitX=1;exitY=0.5;exitDx=0;exitDy=0;" parent="77e6c97f196da883-1" source="kwMjrkI9CtvLFC3NS55a-6" target="kwMjrkI9CtvLFC3NS55a-7" edge="1">
          <mxGeometry width="50" height="50" relative="1" as="geometry">
            <mxPoint y="820" as="sourcePoint"/>
            <mxPoint x="50" y="770" as="targetPoint"/>
          </mxGeometry>
        </mxCell>
        <mxCell id="kwMjrkI9CtvLFC3NS55a-33" value="" style="endArrow=classic;html=1;exitX=1;exitY=0.5;exitDx=0;exitDy=0;entryX=0;entryY=0.5;entryDx=0;entryDy=0;" parent="77e6c97f196da883-1" source="kwMjrkI9CtvLFC3NS55a-7" target="kwMjrkI9CtvLFC3NS55a-32" edge="1">
          <mxGeometry width="50" height="50" relative="1" as="geometry">
            <mxPoint x="550" y="160" as="sourcePoint"/>
            <mxPoint x="600" y="110" as="targetPoint"/>
            <Array as="points">
              <mxPoint x="660" y="170"/>
              <mxPoint x="660" y="386"/>
            </Array>
          </mxGeometry>
        </mxCell>
      </root>
    </mxGraphModel>
  </diagram>
</mxfile>
